<?xml version="1.0" encoding="utf-8"?>
<!-- Generator: Adobe Illustrator 22.1.0, SVG Export Plug-In . SVG Version: 6.00 Build 0)  -->
<svg version="1.1" id="圖層_1" xmlns="http://www.w3.org/2000/svg" xmlns:xlink="http://www.w3.org/1999/xlink" x="0px" y="0px"
	 viewBox="0 0 250 70" style="enable-background:new 0 0 250 70;" xml:space="preserve">
<style type="text/css">
	.st0{fill:#189DBF;}
	.st1{fill:#FFFFFF;}
</style>
<title>資產 1</title>
<g id="圖層_2_1_">
	<g id="圖層_1-2">
		<path class="st0" d="M250.9,70.6c-3.3-0.6-6.5-1.5-9.6-2.6c-8.7-3.2-19.8-10.9-29.4-30.6c-3.9-15.3-18.4-26.7-35.4-26.7H75.2
			C58.3,10.7,44,22,39.9,37.2C30.4,57,19.1,64.7,10.4,68c-3.1,1.1-6.3,2-9.5,2.6H250.9z"/>
		<path class="st1" d="M173.4,36.2H80.1c-3.8,0-6.9-1.6-6.9-3.6s3.1-3.6,6.9-3.6h93.3c3.8,0,6.9,1.6,6.9,3.6S177.2,36.2,173.4,36.2z
			"/>
		<path class="st1" d="M173.4,52.2H80.1c-3.8,0-6.9-1.6-6.9-3.6s3.1-3.6,6.9-3.6h93.3c3.8,0,6.9,1.6,6.9,3.6S177.2,52.2,173.4,52.2z
			"/>
	</g>
</g>
</svg>
