<svg xmlns="http://www.w3.org/2000/svg" viewBox="0 0 144.01 41.58"><defs><style>.cls-1{fill:#189dbf;}.cls-2{fill:#fff;}</style></defs><title>資產 1</title><g id="圖層_2" data-name="圖層 2"><g id="圖層_1-2" data-name="圖層 1"><path class="cls-1" d="M144,41.58a33.41,33.41,0,0,1-5.51-1.81c-5-2.25-11.42-7.56-16.91-21.23C119.31,7.93,111,0,101.21,0H42.84c-9.76,0-18,7.85-20.35,18.38-5.5,13.8-12,19.13-17,21.39A33.41,33.41,0,0,1,0,41.58Z"/><path class="cls-2" d="M89.5,19.79h-34a2.5,2.5,0,0,1,0-5h34a2.5,2.5,0,0,1,0,5Z"/><path class="cls-2" d="M89.5,28.79h-34a2.5,2.5,0,0,1,0-5h34a2.5,2.5,0,0,1,0,5Z"/></g></g></svg>