<svg xmlns="http://www.w3.org/2000/svg" viewBox="0 0 117 48"><defs><style>.cls-1{fill:#18bf92;opacity:0.8;}.cls-2{fill:#fff;}</style></defs><title>down-green</title><g id="圖層_2" data-name="圖層 2"><g id="圖層_1-2" data-name="圖層 1"><path class="cls-1" d="M117,48V43.5A43.62,43.62,0,0,0,73.5,0h-30A43.62,43.62,0,0,0,0,43.5V48Z"/><path class="cls-2" d="M58.52,30.31a1,1,0,0,1,.11-.17Q66,22.76,73.4,15.37a2.9,2.9,0,0,1,2.31-.89,2.84,2.84,0,0,1,2.59,2.6,2.81,2.81,0,0,1-.86,2.26L60.52,36.26a2.82,2.82,0,0,1-3.81.25l-.29-.26L39.51,19.34a2.75,2.75,0,0,1-.74-2.84,2.83,2.83,0,0,1,4.73-1.18L47.15,19,58.33,30.14a1.63,1.63,0,0,1,.11.17Z"/></g></g></svg>