<?xml version="1.0" encoding="utf-8"?>
<!-- Generator: Adobe Illustrator 22.1.0, SVG Export Plug-In . SVG Version: 6.00 Build 0)  -->
<svg version="1.1" id="圖層_1" xmlns="http://www.w3.org/2000/svg" xmlns:xlink="http://www.w3.org/1999/xlink" x="0px" y="0px"
	 viewBox="0 0 117 48" style="enable-background:new 0 0 117 48;" xml:space="preserve">
<style type="text/css">
	.st0{fill:#FFFFFF;}
</style>
<title>down-blue</title>
<path class="st0" d="M58.5,30.3c0-0.1,0.1-0.1,0.1-0.2c4.9-4.9,9.8-9.8,14.8-14.8c0.6-0.6,1.4-1,2.3-0.9c1.4,0.1,2.5,1.2,2.6,2.6
	c0.1,0.8-0.2,1.7-0.9,2.3L60.5,36.3c-1,1.1-2.7,1.2-3.8,0.3l-0.3-0.3L39.5,19.3c-0.8-0.7-1.1-1.8-0.7-2.8c0.4-1.5,2-2.4,3.5-1.9
	c0.5,0.1,0.9,0.4,1.2,0.7l3.7,3.7l11.2,11.1C58.4,30.2,58.4,30.3,58.5,30.3L58.5,30.3z"/>
</svg>
