<svg xmlns="http://www.w3.org/2000/svg" viewBox="0 0 50 50.1"><defs><style>.cls-1{fill:#fff;}</style></defs><title>資產 1</title><g id="圖層_2" data-name="圖層 2"><g id="圖層_1-2" data-name="圖層 1"><path class="cls-1" d="M24.67,50.1A24.75,24.75,0,0,1,7,42.4,24.36,24.36,0,0,1,0,24,24.26,24.26,0,0,1,7.74,6.91,24.57,24.57,0,0,1,26.62,0,24.14,24.14,0,0,1,37.5,3.32a24.06,24.06,0,0,1,8.34,7.87A24.47,24.47,0,0,1,50,26.13a24.54,24.54,0,0,1-7.63,16.94A25.18,25.18,0,0,1,24.67,50.1ZM24.5,4.63c-2.62-.14-6.89,1.15-9.73,2.84a20.42,20.42,0,0,0-7.36,7.38,22.64,22.64,0,0,0-2.79,9.48A20.57,20.57,0,0,0,7.42,35.2a19.75,19.75,0,0,0,7.36,7.38,20.16,20.16,0,0,0,24.39-2.94,20.1,20.1,0,0,0,6.19-14,20.36,20.36,0,0,0-2.82-10.85,19.24,19.24,0,0,0-7.23-7.26A21.13,21.13,0,0,0,24.5,4.63Z"/><path class="cls-1" d="M21.75,33.27V26.48a3.37,3.37,0,0,1-1.28-.1c-.4-.19-.92-.6-1-1a9.45,9.45,0,0,1,0-2.76,1.28,1.28,0,0,1,.91-.82c2.15-.07,4.31-.06,6.47,0,.61,0,1.37,1.1,1.37,1.83,0,3.16,0,6.32,0,9.64a11,11,0,0,1,1.28.1,1.09,1.09,0,0,1,1,1.21c0,.77,0,1.54,0,2.31A1.06,1.06,0,0,1,29.39,38Q25,38,20.6,38a1.09,1.09,0,0,1-1.15-1.1,12.87,12.87,0,0,1,0-1.39C19.45,33.46,19.45,33.46,21.75,33.27Z"/><path class="cls-1" d="M24.88,11.14a4.26,4.26,0,0,1,4.28,4.11,4.17,4.17,0,0,1-8.33.23A4.24,4.24,0,0,1,24.88,11.14Z"/></g></g></svg>