<svg xmlns="http://www.w3.org/2000/svg" viewBox="0 0 32 32.01"><defs><style>.cls-1{fill:#fff;}</style></defs><title>favicon資產 2</title><g id="圖層_2" data-name="圖層 2"><g id="圖層_1-2" data-name="圖層 1"><path class="cls-1" d="M16.06,13.33c.25-.31.4-.54.59-.73L28.54.7a1.75,1.75,0,0,1,2.78,0,1.74,1.74,0,0,1,0,2.77q-5.94,6-11.9,11.9c-.19.19-.41.35-.66.57.21.23.35.4.51.56L31.37,28.61a1.72,1.72,0,0,1,.35,2.26,2,2,0,0,1-2.38,1,2.7,2.7,0,0,1-.85-.62q-5.8-5.77-11.59-11.58c-.28-.28-.53-.58-.83-.92-.26.24-.44.4-.61.57l-12,12a1.77,1.77,0,0,1-2.87,0,1.72,1.72,0,0,1,0-2.64c1.66-1.68,3.33-3.34,5-5l7.08-7.08.51-.54-.48-.5-12-12A1.78,1.78,0,0,1,.76.61,1.72,1.72,0,0,1,3.44.68q4.23,4.22,8.45,8.45Z"/></g></g></svg>