<svg xmlns="http://www.w3.org/2000/svg" viewBox="0 0 33.32 59.75"><defs><style>.cls-1{fill:#fff;}</style></defs><title>資產 3</title><g id="圖層_2" data-name="圖層 2"><g id="圖層_1-2" data-name="圖層 1"><path class="cls-1" d="M30.49,59.75a12.34,12.34,0,0,0,1.56-.85,3.31,3.31,0,0,0,.5-4.72c-1-1.14-2.09-2.17-3.16-3.24L8.65,30.2c-.1-.1-.18-.2-.34-.38C9,29.2,9.59,28.61,10.2,28q11-11,22-21.95a3.4,3.4,0,0,0,.72-4.22A3.24,3.24,0,0,0,31,.22L30.49,0H29.25c-1.63.44-2.56,1.77-3.67,2.85C23.7,4.68,21.87,6.55,20,8.4l-6,6L8.49,19.92,3,25.38c-.74.74-1.49,1.48-2.19,2.25a3.47,3.47,0,0,0,.27,4.82c2.6,2.56,5.17,5.16,7.75,7.74L17,48.3c2.36,2.36,4.7,4.73,7.06,7.09,1.18,1.19,2.36,2.39,3.61,3.52a7,7,0,0,0,1.58.84Z"/></g></g></svg>